<svg xmlns="http://www.w3.org/2000/svg" width="512" height="512" viewBox="0 0 512 512" version="1.1">
	<path fill="tomato" d="M 0 256.002 L 0 512.004 256.250 511.752 L 512.500 511.500 512.752 255.750 L 513.004 0 256.502 0 L 0 0 0 256.002 M 0.492 256.500 C 0.492 397.300, 0.608 454.751, 0.750 384.170 C 0.892 313.588, 0.892 198.388, 0.750 128.170 C 0.608 57.951, 0.492 115.700, 0.492 256.500 M 4.462 5.250 C 4.201 5.938, 4.103 119.225, 4.244 257 L 4.500 507.500 254.177 507.752 C 480.169 507.980, 504.002 507.855, 505.427 506.431 C 506.849 505.008, 507 481.122, 507 256.994 C 507 98.365, 506.649 8.207, 506.025 6.565 L 505.050 4 254.993 4 C 55.868 4, 4.841 4.255, 4.462 5.250 M 244 22.582 C 232.246 24.657, 228.484 25.514, 221.500 27.709 C 192.624 36.783, 167.993 58.953, 153.119 89.257 C 139.356 117.299, 130.992 155.202, 131.006 189.470 C 131.012 206.269, 132.457 217.654, 136.990 236.621 C 141.571 255.790, 142.647 266.084, 141.235 277.250 C 138.784 296.646, 132.155 309.659, 115.282 328.204 C 107.183 337.104, 104.816 341.473, 104.207 348.645 C 103.197 360.534, 110.232 370.677, 124.070 377.282 L 131.500 380.828 128.500 382.012 C 126.850 382.663, 120.352 384.982, 114.061 387.167 C 96.625 393.220, 93.871 394.765, 91.250 399.962 C 89.273 403.883, 89 405.947, 89 416.989 C 89 431.880, 89.075 432.037, 99.262 438.380 C 122.404 452.788, 152.121 463.076, 183.500 467.540 C 198.936 469.737, 206.131 469.474, 212 466.500 C 215.495 464.729, 218.547 464, 222.467 464 C 226.601 464, 228 463.638, 228 462.568 C 228 461.781, 218.887 451.752, 207.750 440.282 C 196.612 428.813, 186.490 418.207, 185.257 416.714 L 183.013 414 158.007 414 C 144.253 414, 133 413.740, 133 413.423 C 133 412.654, 148.853 391.429, 156.456 382.019 C 162.654 374.348, 190.425 344.730, 191.905 344.212 C 192.358 344.053, 191.440 346.479, 189.865 349.603 C 187.061 355.162, 187 355.627, 187 371.615 L 187 387.949 189.948 389.473 C 193.737 391.433, 195.862 394.294, 207.024 412.467 C 218.311 430.843, 224.331 438.794, 227.574 439.608 C 231.747 440.655, 235.776 438.062, 242.500 430 C 246.050 425.744, 250.293 421.707, 251.930 421.029 C 254.529 419.952, 255.273 420.058, 257.814 421.868 C 259.414 423.007, 263.278 427.061, 266.399 430.877 C 272.566 438.414, 273.447 439, 278.619 439 C 283.603 439, 288.297 433.723, 303.886 410.594 C 311.099 399.892, 318.387 390.148, 320.081 388.942 L 323.161 386.749 322.831 369.624 C 322.507 352.867, 322.439 352.396, 319.644 347.641 C 317.625 344.206, 317.277 343.056, 318.457 343.716 C 321.823 345.599, 348.746 374.868, 356.915 385.523 C 361.543 391.561, 368.405 400.186, 372.165 404.690 C 375.924 409.195, 379 413.133, 379 413.440 C 379 413.748, 367.250 414, 352.888 414 L 326.776 414 321.638 419.698 C 318.812 422.831, 309.588 432.667, 301.141 441.556 C 292.694 450.444, 284.843 459.200, 283.695 461.013 L 281.607 464.310 286.572 463.651 C 290.843 463.085, 292.371 463.407, 297.518 465.965 C 304.643 469.505, 309.074 469.726, 327.158 467.440 C 355.840 463.815, 385.533 454.139, 409.727 440.534 C 421.469 433.930, 421.439 433.982, 421.839 419.667 C 422.465 397.266, 419.944 394.368, 391.976 385.344 C 385.423 383.230, 380.047 381.256, 380.030 380.958 C 380.014 380.660, 382.587 379.150, 385.750 377.603 C 400.131 370.565, 406.333 362.548, 406.333 351 C 406.333 343.176, 402.920 336.529, 394.010 327 C 380.215 312.248, 373.454 299.328, 370.408 281.896 C 368.295 269.804, 369.026 255.379, 372.506 240.500 C 379.854 209.080, 381.036 197.417, 379.096 175.500 C 373.334 110.442, 350.760 64.039, 312.658 38.936 C 295.619 27.710, 280.568 23.008, 260 22.484 C 252.575 22.295, 245.375 22.339, 244 22.582 M 239.934 34.435 C 231.952 36.102, 220.837 39.422, 215.729 41.666 C 211.328 43.599, 209.650 47.540, 212.378 49.535 C 213.722 50.517, 215.474 50.374, 221.276 48.809 C 231.012 46.183, 252.556 46.771, 264.500 49.989 C 276.466 53.213, 289.775 59.854, 294.250 64.833 C 296.313 67.128, 298 69.424, 298 69.935 C 298 70.446, 296.633 71.837, 294.963 73.027 C 291.411 75.556, 291.600 77.056, 296.338 83.972 C 298.023 86.431, 300.872 91.827, 302.669 95.961 C 306.517 104.813, 308.631 106.472, 307.668 99.885 C 307.315 97.473, 306.718 94.375, 306.340 93 C 305.711 90.712, 305.802 90.622, 307.405 91.937 C 308.368 92.728, 310.253 95.540, 311.595 98.187 C 312.936 100.834, 314.309 103, 314.646 103 C 315.645 103, 313.969 90.862, 312.478 87.293 C 310.364 82.234, 312.352 83.364, 317.415 90.099 C 322.263 96.548, 323.174 95.954, 320.446 88.122 C 319.608 85.715, 319.119 83.548, 319.360 83.307 C 320.180 82.487, 324.955 89.621, 326.480 93.944 C 327.316 96.313, 328 99.990, 328 102.114 C 328 105.852, 328.130 105.997, 332.032 106.621 C 334.620 107.035, 336.769 108.162, 338.032 109.768 L 340 112.270 339.979 108.885 C 339.967 107.023, 338.855 102.375, 337.507 98.555 C 336.160 94.735, 335.221 91.446, 335.422 91.245 C 336.142 90.525, 342.473 98.886, 345.188 104.140 C 348.611 110.767, 348.994 107.897, 345.911 98.718 C 335.499 67.722, 310.616 43.824, 280.500 35.897 C 270.246 33.198, 249.449 32.448, 239.934 34.435 M 286.250 45.662 C 283.603 46.731, 285.230 48.742, 290.956 51.479 C 294.232 53.045, 298.598 56.052, 300.659 58.163 C 304.972 62.580, 307 63.032, 307 59.577 C 307 56.052, 302.943 51.781, 296.161 48.167 C 290.324 45.056, 288.743 44.656, 286.250 45.662 M 285.120 99.423 C 276.895 119.269, 256.981 134.960, 231.500 141.673 C 222.654 144.003, 219.539 144.315, 204.500 144.373 C 188.458 144.435, 187.030 144.282, 179.156 141.647 C 174.567 140.111, 170.647 139.020, 170.444 139.223 C 169.315 140.352, 167.006 159.934, 166.991 168.500 C 166.982 174, 168.408 189.859, 170.161 203.743 C 171.913 217.627, 173.005 229.327, 172.587 229.743 C 172.170 230.159, 170.989 229.465, 169.963 228.200 L 168.099 225.901 165.963 228.037 C 164.519 229.481, 163.093 229.989, 161.562 229.605 C 158.182 228.757, 157.808 229.887, 160.113 233.988 C 163.413 239.858, 170.654 242.946, 173.783 239.817 C 174.434 239.166, 175.164 238.831, 175.406 239.073 C 175.648 239.314, 177.409 245.890, 179.319 253.686 C 185.227 277.792, 192.114 288.646, 210.924 303.500 C 230.059 318.610, 244.475 326, 254.813 326 C 259.526 326, 262.148 325.254, 268.879 321.999 C 279.564 316.832, 289.579 310.334, 299.181 302.339 C 312.801 290.997, 320.159 280.453, 325 265.341 C 329.181 252.288, 334.822 223.589, 335.976 209.500 C 336.517 202.900, 337.635 192.775, 338.461 187 C 340.876 170.122, 341.042 170.837, 332.928 163.224 C 329.038 159.575, 324.265 153.876, 322.321 150.560 C 319.068 145.010, 313.833 130.916, 310.971 120.008 L 309.793 115.517 307.513 124.508 C 303.758 139.320, 298.970 149.527, 292.569 156.361 C 291.095 157.935, 289.671 159.005, 289.405 158.738 C 289.138 158.472, 289.936 154.484, 291.177 149.877 C 294.301 138.278, 294.299 116.266, 291.173 104.721 C 288.083 93.306, 287.769 93.032, 285.120 99.423 M 264.446 109.150 C 257.311 115.052, 252.016 118.562, 242.713 123.557 C 233.693 128.400, 233.640 129.048, 242.514 125.995 C 249.798 123.489, 255.570 120.132, 261.665 114.857 C 270.697 107.040, 273.195 101.913, 264.446 109.150 M 184.096 175.306 C 180.712 176.493, 178.016 179.349, 179.180 180.513 C 179.515 180.848, 182.424 180.584, 185.644 179.926 C 193.629 178.294, 201.547 180.410, 214.150 187.540 C 219.458 190.543, 224.715 193, 225.833 193 C 227.845 193, 229.643 189.850, 228.597 188.158 C 228.305 187.685, 223.439 185.001, 217.783 182.195 C 202.336 174.529, 192.215 172.460, 184.096 175.306 M 301.678 175.577 C 298.475 176.352, 291.388 179.281, 285.928 182.086 C 277.466 186.433, 276 187.545, 276 189.624 C 276 190.965, 276.626 192.303, 277.392 192.597 C 278.157 192.890, 284.694 190.064, 291.918 186.315 C 304.440 179.818, 305.367 179.503, 311.777 179.565 C 315.474 179.601, 319.570 180.210, 320.877 180.919 C 322.820 181.971, 323.401 181.969, 324.057 180.907 C 325.541 178.507, 323.115 176.190, 317.961 175.085 C 311.631 173.727, 308.984 173.807, 301.678 175.577 M 290.500 195.953 C 282.141 198.038, 274.826 203.709, 273.488 209.141 C 272.414 213.503, 274.425 213.181, 278.469 208.343 L 282.283 203.781 283.578 207.550 C 285.491 213.115, 288.281 215.455, 293.005 215.455 C 298.829 215.455, 302.343 211.705, 302.250 205.589 L 302.181 201.042 304.841 202.429 C 308.469 204.320, 311.135 209.007, 309.870 211.268 C 309.058 212.719, 309.331 213, 311.557 213 C 313.508 213, 314.061 212.601, 313.638 211.500 C 313.322 210.675, 313.464 210, 313.955 210 C 315.521 210, 321 204.876, 321 203.411 C 321 202.569, 319.983 202, 318.479 202 C 317.092 202, 314.269 200.883, 312.205 199.517 C 306.613 195.817, 297.227 194.275, 290.500 195.953 M 198.037 197.174 C 196.132 197.721, 193.234 199.121, 191.598 200.286 C 189.961 201.452, 187.582 202.319, 186.311 202.214 C 185.040 202.108, 184 202.221, 184 202.464 C 184 204.337, 186.685 207.973, 189.136 209.421 C 191.521 210.830, 191.872 211.450, 190.928 212.586 C 189.960 213.753, 190.300 214, 192.878 214 C 195.927 214, 197 212.736, 195 211.500 C 193.077 210.312, 194.025 207.157, 197.077 204.589 C 201.197 201.122, 202 201.315, 202 205.777 C 202 212.879, 207.300 217.046, 213.661 214.947 C 217.169 213.789, 220 209.799, 220 206.014 C 220 204.272, 220.314 204.098, 221.911 204.952 C 222.961 205.515, 224.868 207.668, 226.147 209.737 C 227.966 212.681, 228.549 213.102, 228.825 211.671 C 229.772 206.753, 225.550 201.113, 218.500 197.879 C 214.066 195.845, 203.891 195.494, 198.037 197.174 M 208.667 202.667 C 208.300 203.033, 208 204.600, 208 206.148 C 208 208.319, 208.574 209.106, 210.513 209.593 C 214.822 210.674, 217.814 206.214, 214.800 203.200 C 213.506 201.906, 209.753 201.580, 208.667 202.667 M 291.170 202.853 C 290.417 203.342, 289.983 204.972, 290.170 206.609 C 290.449 209.054, 290.946 209.500, 293.391 209.500 C 296.956 209.500, 299.001 206.816, 297.393 204.250 C 296.141 202.254, 293.132 201.578, 291.170 202.853 M 196.500 218 C 196.160 218.550, 196.557 219, 197.382 219 C 198.207 219, 199.160 218.550, 199.500 218 C 199.840 217.450, 199.443 217, 198.618 217 C 197.793 217, 196.840 217.450, 196.500 218 M 304.570 217.886 C 304.269 218.374, 304.891 219, 305.953 219.278 C 308.094 219.837, 309.231 219.183, 308.414 217.861 C 307.719 216.737, 305.270 216.754, 304.570 217.886 M 340.598 227.606 C 340.163 228.739, 339.261 229.031, 337.537 228.599 C 335.383 228.058, 335.019 228.382, 334.465 231.335 C 334.119 233.177, 333.986 235.993, 334.168 237.592 C 334.462 240.168, 334.935 240.536, 338.304 240.814 C 341.600 241.085, 342.636 240.600, 346.054 237.181 C 350.019 233.216, 351.175 230, 348.635 230 C 347.884 230, 346.126 229.100, 344.727 228 C 341.656 225.584, 341.383 225.558, 340.598 227.606 M 220 277.420 C 220 279.239, 232.970 290.077, 239.500 293.715 C 243.874 296.151, 245.564 296.500, 253 296.500 C 260.012 296.500, 262.326 296.078, 266.218 294.089 C 272.388 290.935, 286 280.117, 286 278.367 C 286 276.666, 285.581 276.669, 277.812 278.433 C 264.186 281.526, 253.193 282.183, 242.495 280.545 C 236.998 279.702, 230.025 278.341, 227 277.519 C 220.206 275.672, 220 275.669, 220 277.420 M 239 285.482 C 239 287.268, 248.013 289.956, 254 289.956 C 260.019 289.956, 269 287.265, 269 285.461 C 269 285.111, 267.087 285.148, 264.750 285.545 C 259.688 286.402, 243.716 286.362, 240.950 285.484 C 239.878 285.144, 239 285.143, 239 285.482 M 291 319.272 C 276.796 329.615, 264.545 335, 255.213 335 C 245.728 335, 233.527 329.966, 219.782 320.382 C 215.537 317.422, 211.825 315, 211.532 315 C 211.239 315, 210.947 321.863, 210.882 330.250 C 210.732 349.500, 210.456 350.754, 205.636 354.027 C 203.513 355.469, 201.281 357.516, 200.676 358.575 C 198.941 361.613, 199.628 374.986, 201.964 383.644 C 204.371 392.564, 205.800 395.390, 206.724 393.057 C 207.038 392.263, 208.390 390.519, 209.729 389.181 C 211.965 386.944, 212.741 386.786, 219.331 387.225 C 225.302 387.623, 228.422 388.591, 238 393.014 C 252.571 399.744, 255.058 399.829, 268 394.048 C 287.336 385.410, 297.378 384.535, 302.206 391.065 L 304.416 394.054 305.623 391.751 C 308.023 387.169, 310.138 376.514, 310.249 368.444 C 310.374 359.259, 309.206 356.416, 304.054 353.373 C 302.409 352.401, 300.747 350.907, 300.362 350.053 C 299.977 349.199, 299.400 340.695, 299.081 331.155 L 298.500 313.810 291 319.272 M 220.180 402.250 C 220.400 403.795, 222.175 405.398, 225.846 407.365 C 231.765 410.537, 231.855 410.934, 228.875 420.756 C 227.741 424.492, 227.786 425.214, 229.239 426.668 C 230.780 428.209, 231.112 428.092, 234.022 424.977 C 241.060 417.442, 242.875 409.642, 238.527 405.613 C 235.736 403.026, 227.265 400, 222.816 400 C 220.323 400, 219.911 400.352, 220.180 402.250 M 276.500 402.501 C 270.348 405.017, 266.999 407.963, 267.001 410.861 C 267.002 413.759, 272.717 424.688, 275.106 426.361 C 278.744 428.910, 279.568 427.011, 278.078 419.516 C 277.366 415.935, 277.048 412.317, 277.371 411.476 C 277.693 410.635, 279.886 409.121, 282.243 408.110 C 287.213 405.980, 289.466 403.657, 288.643 401.513 C 287.803 399.322, 283.397 399.681, 276.500 402.501" stroke="none" fill-rule="evenodd"/>
</svg>